<svg width="30" height="30" viewBox="0 0 30 30" fill="none" xmlns="http://www.w3.org/2000/svg">
<path d="M12.35 22.65L20 15L12.35 7.33334L10 9.7L15.3 15L10 20.3M3.33333 30C2.44928 30 1.60143 29.6488 0.976313 29.0237C0.35119 28.3986 -2.14123e-07 27.5507 -2.91409e-07 26.6667L-2.33127e-06 3.33334C-2.40856e-06 2.44928 0.351188 1.60144 0.97631 0.976315C1.60143 0.351193 2.44928 2.40856e-06 3.33333 2.33127e-06L26.6667 2.91409e-07C27.5507 2.14123e-07 28.3986 0.351191 29.0237 0.976313C29.6488 1.60143 30 2.44928 30 3.33333L30 26.6667C30 27.5507 29.6488 28.3986 29.0237 29.0237C28.3986 29.6488 27.5507 30 26.6667 30L3.33333 30Z" fill="#F4F5ED"/>
</svg>
